<mxfile host="app.diagrams.net" agent="Mozilla/5.0 (Windows NT 10.0; Win64; x64) AppleWebKit/537.36 (KHTML, like Gecko) Chrome/140.0.0.0 Safari/537.36 Edg/140.0.0.0" version="28.2.5">
  <diagram name="Page-1" id="jIhs1a7BguIBXvsB0KyY">
    <mxGraphModel dx="651" dy="1111" grid="1" gridSize="10" guides="1" tooltips="1" connect="1" arrows="1" fold="1" page="1" pageScale="1" pageWidth="850" pageHeight="1100" math="0" shadow="0">
      <root>
        <mxCell id="0" />
        <mxCell id="1" parent="0" />
        <mxCell id="vS4M0_wavtUfUrCv5dpx-59" value="" style="rounded=0;whiteSpace=wrap;html=1;" vertex="1" parent="1">
          <mxGeometry x="130" y="90" width="770" height="750" as="geometry" />
        </mxCell>
        <mxCell id="vS4M0_wavtUfUrCv5dpx-1" value="E&lt;span style=&quot;background-color: transparent; color: light-dark(rgb(0, 0, 0), rgb(255, 255, 255));&quot;&gt;-commerce system&lt;/span&gt;" style="text;html=1;align=center;verticalAlign=middle;resizable=0;points=[];autosize=1;strokeColor=none;fillColor=none;" vertex="1" parent="1">
          <mxGeometry x="375" y="100" width="130" height="30" as="geometry" />
        </mxCell>
        <mxCell id="vS4M0_wavtUfUrCv5dpx-52" style="edgeStyle=orthogonalEdgeStyle;rounded=0;orthogonalLoop=1;jettySize=auto;html=1;exitX=1;exitY=0.5;exitDx=0;exitDy=0;entryX=0;entryY=0.5;entryDx=0;entryDy=0;dashed=1;" edge="1" parent="1" source="vS4M0_wavtUfUrCv5dpx-2" target="vS4M0_wavtUfUrCv5dpx-32">
          <mxGeometry relative="1" as="geometry" />
        </mxCell>
        <mxCell id="vS4M0_wavtUfUrCv5dpx-53" value="include" style="edgeLabel;html=1;align=center;verticalAlign=middle;resizable=0;points=[];" vertex="1" connectable="0" parent="vS4M0_wavtUfUrCv5dpx-52">
          <mxGeometry x="-0.2364" relative="1" as="geometry">
            <mxPoint as="offset" />
          </mxGeometry>
        </mxCell>
        <mxCell id="vS4M0_wavtUfUrCv5dpx-2" value="enter product catalog" style="ellipse;whiteSpace=wrap;html=1;" vertex="1" parent="1">
          <mxGeometry x="375" y="180" width="120" height="80" as="geometry" />
        </mxCell>
        <mxCell id="vS4M0_wavtUfUrCv5dpx-4" value="Enter shopping carts" style="ellipse;whiteSpace=wrap;html=1;" vertex="1" parent="1">
          <mxGeometry x="380" y="290" width="120" height="80" as="geometry" />
        </mxCell>
        <mxCell id="vS4M0_wavtUfUrCv5dpx-5" value="Customer" style="shape=umlActor;verticalLabelPosition=bottom;verticalAlign=top;html=1;outlineConnect=0;" vertex="1" parent="1">
          <mxGeometry x="180" y="330" width="30" height="60" as="geometry" />
        </mxCell>
        <mxCell id="vS4M0_wavtUfUrCv5dpx-6" value="complete transaction" style="ellipse;whiteSpace=wrap;html=1;" vertex="1" parent="1">
          <mxGeometry x="770" y="290" width="120" height="80" as="geometry" />
        </mxCell>
        <mxCell id="vS4M0_wavtUfUrCv5dpx-18" style="edgeStyle=orthogonalEdgeStyle;rounded=0;orthogonalLoop=1;jettySize=auto;html=1;dashed=1;dashPattern=8 8;" edge="1" parent="1" source="vS4M0_wavtUfUrCv5dpx-8" target="vS4M0_wavtUfUrCv5dpx-6">
          <mxGeometry relative="1" as="geometry" />
        </mxCell>
        <mxCell id="vS4M0_wavtUfUrCv5dpx-19" value="include" style="edgeLabel;html=1;align=center;verticalAlign=middle;resizable=0;points=[];" vertex="1" connectable="0" parent="vS4M0_wavtUfUrCv5dpx-18">
          <mxGeometry x="0.0133" y="2" relative="1" as="geometry">
            <mxPoint as="offset" />
          </mxGeometry>
        </mxCell>
        <mxCell id="vS4M0_wavtUfUrCv5dpx-34" style="edgeStyle=orthogonalEdgeStyle;rounded=0;orthogonalLoop=1;jettySize=auto;html=1;exitX=0;exitY=0.5;exitDx=0;exitDy=0;entryX=1;entryY=0.5;entryDx=0;entryDy=0;dashed=1;" edge="1" parent="1" source="vS4M0_wavtUfUrCv5dpx-8" target="vS4M0_wavtUfUrCv5dpx-4">
          <mxGeometry relative="1" as="geometry" />
        </mxCell>
        <mxCell id="vS4M0_wavtUfUrCv5dpx-35" value="extend" style="edgeLabel;html=1;align=center;verticalAlign=middle;resizable=0;points=[];" vertex="1" connectable="0" parent="vS4M0_wavtUfUrCv5dpx-34">
          <mxGeometry x="-0.2333" y="1" relative="1" as="geometry">
            <mxPoint as="offset" />
          </mxGeometry>
        </mxCell>
        <mxCell id="vS4M0_wavtUfUrCv5dpx-8" value="make purchases" style="ellipse;whiteSpace=wrap;html=1;" vertex="1" parent="1">
          <mxGeometry x="560" y="290" width="120" height="80" as="geometry" />
        </mxCell>
        <mxCell id="vS4M0_wavtUfUrCv5dpx-20" value="" style="endArrow=none;html=1;rounded=0;entryX=0;entryY=0.5;entryDx=0;entryDy=0;" edge="1" parent="1" target="vS4M0_wavtUfUrCv5dpx-2">
          <mxGeometry width="50" height="50" relative="1" as="geometry">
            <mxPoint x="220" y="360" as="sourcePoint" />
            <mxPoint x="270" y="305" as="targetPoint" />
          </mxGeometry>
        </mxCell>
        <mxCell id="vS4M0_wavtUfUrCv5dpx-21" value="" style="endArrow=none;html=1;rounded=0;" edge="1" parent="1">
          <mxGeometry width="50" height="50" relative="1" as="geometry">
            <mxPoint x="220" y="360" as="sourcePoint" />
            <mxPoint x="380" y="335" as="targetPoint" />
          </mxGeometry>
        </mxCell>
        <mxCell id="vS4M0_wavtUfUrCv5dpx-25" value="Payment-gateway" style="shape=umlActor;verticalLabelPosition=bottom;verticalAlign=top;html=1;outlineConnect=0;" vertex="1" parent="1">
          <mxGeometry x="640" y="490" width="30" height="60" as="geometry" />
        </mxCell>
        <mxCell id="vS4M0_wavtUfUrCv5dpx-32" value="browse catalog" style="ellipse;whiteSpace=wrap;html=1;" vertex="1" parent="1">
          <mxGeometry x="580" y="180" width="120" height="80" as="geometry" />
        </mxCell>
        <mxCell id="vS4M0_wavtUfUrCv5dpx-37" value="" style="endArrow=none;html=1;rounded=0;" edge="1" parent="1" source="vS4M0_wavtUfUrCv5dpx-25">
          <mxGeometry width="50" height="50" relative="1" as="geometry">
            <mxPoint x="580" y="420" as="sourcePoint" />
            <mxPoint x="630" y="370" as="targetPoint" />
          </mxGeometry>
        </mxCell>
        <mxCell id="vS4M0_wavtUfUrCv5dpx-45" value="manage orders" style="ellipse;whiteSpace=wrap;html=1;" vertex="1" parent="1">
          <mxGeometry x="375" y="680" width="120" height="80" as="geometry" />
        </mxCell>
        <mxCell id="vS4M0_wavtUfUrCv5dpx-46" value="Admin" style="shape=umlActor;verticalLabelPosition=bottom;verticalAlign=top;html=1;outlineConnect=0;" vertex="1" parent="1">
          <mxGeometry x="165" y="500" width="30" height="60" as="geometry" />
        </mxCell>
        <mxCell id="vS4M0_wavtUfUrCv5dpx-47" value="manage customer relationships" style="ellipse;whiteSpace=wrap;html=1;" vertex="1" parent="1">
          <mxGeometry x="370" y="580" width="120" height="80" as="geometry" />
        </mxCell>
        <mxCell id="vS4M0_wavtUfUrCv5dpx-48" value="" style="endArrow=none;html=1;rounded=0;entryX=0.025;entryY=0.363;entryDx=0;entryDy=0;entryPerimeter=0;" edge="1" parent="1" target="vS4M0_wavtUfUrCv5dpx-47">
          <mxGeometry width="50" height="50" relative="1" as="geometry">
            <mxPoint x="205" y="530" as="sourcePoint" />
            <mxPoint x="265" y="380" as="targetPoint" />
          </mxGeometry>
        </mxCell>
        <mxCell id="vS4M0_wavtUfUrCv5dpx-49" value="sell products" style="ellipse;whiteSpace=wrap;html=1;" vertex="1" parent="1">
          <mxGeometry x="370" y="480" width="120" height="80" as="geometry" />
        </mxCell>
        <mxCell id="vS4M0_wavtUfUrCv5dpx-50" value="" style="endArrow=none;html=1;rounded=0;entryX=0;entryY=0.5;entryDx=0;entryDy=0;" edge="1" parent="1" target="vS4M0_wavtUfUrCv5dpx-49">
          <mxGeometry width="50" height="50" relative="1" as="geometry">
            <mxPoint x="205" y="530" as="sourcePoint" />
            <mxPoint x="255" y="480" as="targetPoint" />
          </mxGeometry>
        </mxCell>
        <mxCell id="vS4M0_wavtUfUrCv5dpx-51" value="" style="endArrow=none;html=1;rounded=0;entryX=0;entryY=0.375;entryDx=0;entryDy=0;entryPerimeter=0;" edge="1" parent="1" target="vS4M0_wavtUfUrCv5dpx-45">
          <mxGeometry width="50" height="50" relative="1" as="geometry">
            <mxPoint x="205" y="530" as="sourcePoint" />
            <mxPoint x="235" y="570" as="targetPoint" />
          </mxGeometry>
        </mxCell>
        <mxCell id="vS4M0_wavtUfUrCv5dpx-57" style="edgeStyle=orthogonalEdgeStyle;rounded=0;orthogonalLoop=1;jettySize=auto;html=1;exitX=0.058;exitY=0.35;exitDx=0;exitDy=0;exitPerimeter=0;dashed=1;" edge="1" parent="1" source="vS4M0_wavtUfUrCv5dpx-56">
          <mxGeometry relative="1" as="geometry">
            <mxPoint x="790" y="420" as="sourcePoint" />
            <mxPoint x="670" y="350" as="targetPoint" />
          </mxGeometry>
        </mxCell>
        <mxCell id="vS4M0_wavtUfUrCv5dpx-58" value="extend" style="edgeLabel;html=1;align=center;verticalAlign=middle;resizable=0;points=[];" vertex="1" connectable="0" parent="vS4M0_wavtUfUrCv5dpx-57">
          <mxGeometry x="-0.2261" y="-4" relative="1" as="geometry">
            <mxPoint as="offset" />
          </mxGeometry>
        </mxCell>
        <mxCell id="vS4M0_wavtUfUrCv5dpx-56" value="transaction error" style="ellipse;whiteSpace=wrap;html=1;" vertex="1" parent="1">
          <mxGeometry x="760" y="400" width="120" height="80" as="geometry" />
        </mxCell>
      </root>
    </mxGraphModel>
  </diagram>
</mxfile>
